<svg width="284" height="284" viewBox="0 0 284 284" fill="none" xmlns="http://www.w3.org/2000/svg"><circle cx="142" cy="142" r="142" fill="#25B7D3"/><path d="M216.062 104.864a19.32 19.32 0 0 0-13.639-13.64C190.389 88 142.143 88 142.143 88s-48.246 0-60.28 3.225a19.323 19.323 0 0 0-13.64 13.639C65 116.896 65 142 65 142s0 25.104 3.223 37.136a19.325 19.325 0 0 0 13.64 13.641C93.897 196 142.143 196 142.143 196s48.246 0 60.28-3.223a19.321 19.321 0 0 0 13.639-13.641c3.225-12.032 3.225-37.136 3.225-37.136s0-25.104-3.225-37.136Z" fill="#ED1F24"/><path d="m126.699 165.146 40.085-23.143-40.085-23.144v46.287Z" fill="#fff"/><circle cx="207" cy="102" r="30" fill="#fff"/><rect x="200" y="85" width="14" height="24" rx="2" fill="#20E300"/><path d="M208.379 117.686a1.999 1.999 0 0 1-2.758 0l-12.322-11.738c-1.307-1.245-.426-3.448 1.38-3.448h24.642c1.806 0 2.687 2.203 1.38 3.448l-12.322 11.738Z" fill="#20E300"/></svg>
