<svg width="48" height="48" viewBox="0 0 48 48" fill="none" xmlns="http://www.w3.org/2000/svg">
<rect width="48" height="48" rx="4" fill="black"/>
<path d="M33.1896 22.6123C33.0259 22.5338 32.8597 22.4583 32.6913 22.386C32.3979 16.9815 29.4448 13.8874 24.4862 13.8558C24.4637 13.8556 24.4414 13.8556 24.4189 13.8556C21.453 13.8556 18.9863 15.1216 17.4681 17.4253L20.1952 19.2961C21.3294 17.5753 23.1094 17.2085 24.4202 17.2085C24.4354 17.2085 24.4506 17.2085 24.4656 17.2086C26.0983 17.219 27.3303 17.6937 28.1277 18.6194C28.708 19.2934 29.0961 20.2247 29.2883 21.4001C27.8407 21.1541 26.2752 21.0785 24.6016 21.1744C19.8872 21.446 16.8564 24.1955 17.0599 28.0161C17.1632 29.9541 18.1287 31.6214 19.7784 32.7105C21.1732 33.6312 22.9696 34.0815 24.8366 33.9796C27.3022 33.8444 29.2364 32.9037 30.5858 31.1836C31.6106 29.8773 32.2588 28.1846 32.545 26.0516C33.72 26.7607 34.5909 27.6939 35.0718 28.8157C35.8896 30.7226 35.9373 33.8562 33.3804 36.411C31.1402 38.649 28.4473 39.6172 24.3777 39.6471C19.8633 39.6136 16.4492 38.1659 14.2294 35.344C12.1508 32.7016 11.0765 28.885 11.0364 24C11.0765 19.115 12.1508 15.2983 14.2294 12.656C16.4492 9.8341 19.8633 8.38635 24.3776 8.35281C28.9247 8.38661 32.3983 9.84132 34.7031 12.6768C35.8332 14.0673 36.6852 15.8159 37.2469 17.8547L40.4427 17.0021C39.7618 14.4925 38.6905 12.33 37.2327 10.5365C34.278 6.90132 29.9566 5.03862 24.3888 5H24.3665C18.8099 5.03849 14.537 6.90827 11.6664 10.5574C9.11204 13.8046 7.79441 18.3229 7.75014 23.9866L7.75 24L7.75014 24.0134C7.79441 29.677 9.11204 34.1955 11.6664 37.4427C14.537 41.0917 18.8099 42.9616 24.3665 43H24.3888C29.3289 42.9658 32.811 41.6724 35.6796 38.8063C39.4327 35.0568 39.3197 30.3569 38.0827 27.4717C37.1952 25.4026 35.5033 23.7222 33.1896 22.6123ZM24.6601 30.6316C22.5938 30.748 20.4472 29.8205 20.3414 27.834C20.2629 26.3611 21.3896 24.7176 24.7869 24.5219C25.176 24.4994 25.5578 24.4885 25.9328 24.4885C27.1668 24.4885 28.3213 24.6083 29.3708 24.8378C28.9793 29.7267 26.6831 30.5206 24.6601 30.6316Z" fill="white"/>
</svg>
